<?xml version="1.0" standalone="no"?>
<!DOCTYPE svg PUBLIC "-//W3C//DTD SVG 20010904//EN"
 "http://www.w3.org/TR/2001/REC-SVG-20010904/DTD/svg10.dtd">
<svg version="1.0" xmlns="http://www.w3.org/2000/svg"
 width="381.000000pt" height="306.000000pt" viewBox="0 0 381.000000 306.000000"
 preserveAspectRatio="xMidYMid meet">

<g transform="translate(0.000000,306.000000) scale(0.100000,-0.100000)"
fill="#000000" stroke="none">
<path d="M2694 2855 c-28 -13 -77 -28 -109 -34 -34 -6 -69 -21 -86 -36 -17
-13 -51 -31 -77 -39 -26 -8 -68 -24 -95 -36 -26 -11 -52 -18 -57 -15 -15 9
-80 -14 -116 -41 -16 -13 -55 -28 -85 -35 -29 -6 -76 -23 -104 -39 -27 -15
-84 -35 -126 -44 -41 -9 -111 -32 -154 -51 -52 -22 -88 -32 -105 -28 -17 3
-52 -5 -91 -21 -36 -14 -103 -33 -149 -41 -48 -9 -116 -31 -156 -50 -40 -19
-87 -36 -105 -39 -47 -6 -118 -34 -156 -63 -17 -12 -34 -23 -37 -23 -3 0 -21
-11 -40 -24 -19 -13 -77 -34 -128 -47 -51 -12 -120 -33 -152 -46 -47 -19 -69
-23 -107 -18 -30 4 -55 2 -70 -6 -13 -7 -60 -13 -104 -14 -44 -1 -89 -4 -100
-7 -32 -8 -41 -50 -23 -107 12 -37 13 -62 7 -96 -9 -47 -7 -64 10 -147 6 -26
9 -99 7 -163 -2 -88 1 -120 12 -136 11 -16 14 -58 12 -197 -1 -97 0 -256 2
-354 2 -97 0 -174 -3 -172 -3 2 -4 -7 -2 -20 3 -13 -3 -38 -12 -56 -23 -45
-14 -60 37 -59 41 1 96 -17 223 -76 28 -13 61 -27 75 -31 13 -4 36 -15 50 -25
14 -10 62 -32 108 -49 45 -16 113 -46 151 -65 38 -19 105 -44 148 -55 43 -12
99 -32 125 -45 27 -13 48 -22 48 -19 0 3 15 -3 33 -14 18 -10 58 -27 88 -37
30 -10 74 -31 98 -48 38 -26 47 -28 64 -18 16 10 21 10 28 -1 5 -7 9 -16 9
-20 0 -20 57 -3 141 42 52 28 132 69 179 91 47 23 140 68 207 100 67 32 125
59 130 59 10 0 93 39 223 105 58 29 116 56 130 60 14 4 49 23 79 42 57 36 73
42 131 47 19 1 52 10 74 19 21 10 62 24 90 32 28 8 103 33 166 55 63 22 120
42 126 43 7 2 18 8 25 13 36 27 117 68 177 89 67 23 116 44 161 70 14 8 37 11
51 9 21 -5 28 -1 37 19 9 19 17 23 35 20 37 -7 52 18 43 75 -8 52 -15 186 -15
302 0 41 -10 145 -22 230 -11 85 -21 164 -20 175 0 11 3 53 7 93 3 41 2 71 -2
69 -4 -3 -9 5 -9 16 -2 38 -13 100 -27 158 -8 31 -15 104 -16 163 -2 96 1 112
25 166 22 49 24 63 14 75 -16 19 -54 19 -70 0 -7 -8 -22 -14 -34 -13 -11 0
-25 0 -31 -2 -5 -2 -44 13 -85 32 -41 19 -93 41 -115 48 -22 7 -53 23 -68 36
-16 13 -33 25 -38 25 -5 1 -13 3 -19 4 -5 1 -14 3 -20 4 -5 0 -27 16 -48 35
-21 19 -64 46 -97 61 -33 14 -78 43 -100 64 -22 22 -54 46 -71 54 -17 9 -36
23 -43 31 -17 20 -25 19 -87 -9z m76 -100 c7 -8 18 -15 24 -15 6 0 38 -23 71
-50 33 -28 75 -55 95 -61 19 -7 54 -29 77 -50 24 -22 62 -44 91 -53 28 -8 62
-22 76 -31 16 -11 35 -15 51 -11 18 5 27 1 35 -13 11 -21 32 -30 80 -36 66 -9
94 -47 43 -60 -16 -3 -38 -15 -49 -26 -32 -30 -55 -29 -82 3 -13 15 -31 28
-39 28 -8 0 -30 7 -49 15 -19 8 -50 22 -70 31 -97 43 -167 63 -185 53 -11 -5
-19 -14 -19 -20 0 -18 20 -49 31 -49 6 0 25 -6 42 -14 18 -7 59 -23 92 -36 73
-28 159 -73 128 -66 -15 2 -38 -7 -64 -26 -39 -28 -41 -28 -46 -9 -7 27 -66
63 -95 59 -17 -2 -24 -11 -26 -30 -2 -16 1 -28 7 -28 6 0 22 -10 36 -22 l25
-21 -37 -23 c-21 -12 -41 -20 -45 -18 -4 3 -27 -5 -50 -16 -24 -12 -65 -28
-93 -37 -27 -8 -55 -19 -60 -23 -6 -5 -46 -22 -90 -38 -44 -17 -127 -49 -185
-72 -58 -22 -134 -52 -170 -64 -80 -28 -142 -60 -159 -80 -7 -8 -41 -24 -76
-36 -36 -12 -80 -32 -99 -45 -20 -13 -57 -31 -83 -39 -27 -8 -75 -26 -108 -41
-33 -15 -89 -35 -125 -45 -64 -16 -66 -16 -120 6 -30 12 -58 20 -62 18 -4 -3
-78 25 -165 62 -87 37 -181 74 -209 84 -73 25 -115 49 -149 83 -16 16 -67 54
-112 84 -46 30 -85 59 -88 63 -3 5 11 12 32 16 21 4 52 13 69 20 17 7 42 10
55 7 21 -5 106 -41 151 -64 11 -6 23 -3 38 9 18 15 21 22 12 38 -10 20 -22 27
-96 60 -33 15 -36 19 -23 29 9 6 54 22 99 34 46 13 92 31 103 41 30 26 66 43
100 46 53 4 168 34 211 56 26 12 51 18 65 15 15 -4 68 11 153 45 71 28 139 52
150 53 12 1 26 3 32 4 5 0 37 17 70 37 37 22 74 37 99 38 23 1 58 14 82 29 23
15 73 35 110 46 37 11 104 33 148 49 65 24 82 27 92 17 7 -7 31 -16 54 -20 73
-13 94 39 28 72 l-24 13 25 0 c14 1 48 9 75 19 64 23 80 24 95 6z m724 -593
c4 -54 12 -135 18 -182 6 -47 10 -123 9 -170 -1 -47 5 -150 14 -229 19 -176
19 -314 2 -406 -14 -69 -14 -145 -2 -188 l7 -22 -17 23 -16 22 -62 -34 c-34
-19 -87 -44 -117 -56 -30 -11 -104 -45 -165 -75 -60 -30 -126 -57 -145 -59
-19 -3 -69 -18 -110 -35 -41 -16 -122 -41 -178 -56 -84 -21 -147 -48 -326
-139 -122 -62 -247 -122 -277 -134 -30 -11 -77 -32 -105 -46 -29 -14 -54 -26
-58 -26 -3 0 -27 -13 -54 -29 -26 -15 -66 -34 -88 -41 -21 -6 -70 -31 -109
-53 -38 -23 -90 -52 -115 -65 -25 -13 -64 -35 -87 -49 l-42 -24 -10 38 c-17
62 -54 303 -56 368 -4 77 -11 163 -25 297 -6 59 -11 194 -12 300 0 106 -5 231
-10 277 -5 49 -5 88 0 93 5 5 45 15 89 22 50 8 92 21 111 35 41 29 106 51 131
44 12 -3 47 8 88 29 38 19 99 45 136 57 37 13 93 38 124 57 31 19 63 34 70 34
18 0 90 37 128 65 17 13 64 34 105 48 178 59 316 108 354 125 46 21 131 53
143 54 5 0 24 8 43 18 19 10 59 25 88 33 29 9 96 41 150 71 53 30 120 60 147
67 28 7 60 19 73 27 12 8 22 11 22 8 0 -4 16 4 36 18 l37 25 27 -21 c26 -18
28 -26 34 -116z m-2737 -207 c54 -36 121 -85 148 -110 28 -25 63 -52 80 -61
48 -25 169 -74 181 -74 7 0 32 -10 56 -21 23 -12 59 -29 78 -37 19 -8 42 -18
50 -21 13 -6 112 -37 149 -48 12 -3 12 -7 -3 -21 -12 -12 -31 -16 -69 -15 -39
2 -56 -2 -72 -17 -20 -18 -21 -18 -110 16 -112 43 -124 49 -156 74 -14 12 -32
22 -40 24 -14 2 -28 10 -124 72 -27 17 -66 38 -85 46 -19 8 -60 31 -90 50 -84
54 -170 95 -234 111 -31 9 -68 23 -82 31 -28 19 -33 42 -6 31 36 -16 101 -11
158 11 33 12 62 23 66 23 4 1 51 -28 105 -64z m-319 -108 c23 4 37 1 45 -11 7
-9 26 -17 42 -19 17 -1 35 -5 40 -10 6 -4 21 -16 34 -27 13 -11 36 -19 50 -18
24 2 121 -60 129 -84 2 -5 10 -4 18 3 11 9 24 4 62 -20 27 -17 52 -31 56 -31
5 0 20 -8 34 -18 15 -10 43 -25 62 -32 19 -7 46 -23 60 -36 14 -12 61 -35 105
-50 98 -33 101 -36 110 -80 11 -63 20 -348 15 -474 -2 -40 26 -416 40 -540 5
-45 8 -86 5 -90 -2 -4 2 -30 10 -58 7 -29 9 -54 4 -57 -4 -3 -21 1 -37 9 -16
8 -32 13 -35 10 -6 -6 -63 21 -87 41 -8 6 -35 20 -60 29 -25 10 -53 25 -63 34
-10 9 -35 17 -55 19 -70 5 -90 10 -118 30 -16 11 -40 24 -54 28 -14 4 -50 20
-80 36 -30 16 -61 29 -69 29 -7 0 -29 9 -47 21 -19 11 -34 17 -34 13 0 -4 -8
0 -19 10 -10 9 -27 18 -39 21 -11 2 -39 16 -63 30 -56 36 -100 54 -138 57 -45
3 -76 39 -66 75 13 47 19 230 13 411 -2 63 0 116 3 118 8 5 3 205 -6 285 -7
53 -6 58 23 87 33 34 35 53 17 214 l-7 68 33 -14 c19 -7 49 -11 67 -9z"/>
<path d="M2377 2173 c-28 -28 26 -93 77 -93 51 0 54 25 9 66 -34 32 -71 43
-86 27z"/>
<path d="M2142 2118 c-24 -24 -12 -46 41 -77 28 -17 64 -40 78 -52 22 -17 30
-19 48 -10 11 7 21 18 21 26 0 19 -49 75 -66 75 -8 0 -14 5 -14 10 0 6 -8 10
-18 10 -10 0 -22 4 -27 9 -18 16 -51 21 -63 9z"/>
<path d="M3015 1925 c-92 -37 -118 -82 -74 -126 18 -18 29 -21 71 -16 41 5 55
3 79 -15 33 -25 39 -67 13 -89 -9 -7 -20 -24 -25 -36 -5 -13 -17 -26 -26 -30
-10 -3 -34 -21 -53 -39 -19 -18 -47 -44 -62 -58 -23 -20 -28 -34 -28 -69 0
-76 18 -77 93 -5 56 54 76 66 139 86 96 29 133 29 162 -3 27 -28 35 -23 55 34
16 50 14 59 -20 76 -26 14 -28 19 -18 31 7 9 14 23 16 32 1 10 4 29 7 45 7 43
-37 110 -106 162 -53 40 -66 45 -111 45 -32 0 -76 -10 -112 -25z"/>
<path d="M1912 1438 c-108 -35 -133 -58 -110 -105 9 -19 26 -31 58 -40 63 -18
90 -52 90 -112 0 -53 -10 -66 -75 -99 -22 -11 -62 -45 -88 -76 -26 -31 -58
-58 -71 -62 -13 -3 -40 -25 -60 -50 -31 -37 -35 -47 -26 -64 15 -27 32 -25 82
10 131 93 156 109 222 147 34 18 205 36 222 22 11 -9 21 -4 49 24 19 19 35 39
35 45 0 18 -29 34 -64 35 l-35 1 31 54 30 53 -17 44 c-14 39 -120 178 -149
197 -15 10 -19 10 -124 -24z"/>
<path d="M2602 1418 c-22 -27 -64 -194 -66 -258 l-1 -65 38 -20 c26 -14 40
-17 45 -9 4 6 24 14 44 18 27 5 47 18 72 49 39 47 40 66 9 99 -12 13 -27 34
-33 48 -30 65 -76 144 -86 147 -6 2 -16 -2 -22 -9z m48 -184 c14 -35 12 -54
-4 -54 -22 0 -39 28 -32 55 8 32 24 32 36 -1z"/>
<path d="M2945 1085 c-62 -68 -121 -114 -150 -119 -5 -1 -20 -8 -33 -15 -13
-7 -33 -13 -45 -14 -12 -1 -37 -13 -54 -26 -18 -14 -43 -25 -55 -27 -13 -1
-34 -5 -48 -9 -44 -12 -160 -14 -153 -2 3 6 1 7 -5 3 -7 -4 -17 -4 -24 0 -22
14 -84 7 -125 -15 -50 -25 -68 -51 -50 -74 11 -15 17 -15 72 -1 54 14 62 14
92 0 28 -13 48 -14 131 -6 53 6 104 9 112 8 38 -4 59 5 94 38 22 21 44 33 52
30 9 -3 32 3 52 14 20 11 53 26 72 35 19 8 79 58 133 111 98 94 99 95 83 119
-12 18 -25 25 -49 25 -27 0 -43 -12 -102 -75z"/>
<path d="M531 1211 c-10 -7 -14 -31 -13 -92 0 -46 -4 -90 -10 -97 -6 -7 -8
-15 -5 -19 4 -3 2 -12 -4 -19 -14 -17 31 -64 59 -64 27 0 45 25 37 49 -3 11 1
47 10 80 13 44 14 64 6 79 -6 11 -11 31 -11 43 0 21 -25 48 -45 49 -5 0 -16
-4 -24 -9z"/>
<path d="M996 1181 c-15 -17 -17 -31 -11 -93 13 -140 14 -162 5 -173 -5 -7 -8
-21 -5 -33 2 -12 0 -22 -5 -22 -15 0 -4 -101 14 -121 19 -23 26 -23 51 -5 16
11 20 28 21 83 1 37 7 111 13 163 5 52 8 111 5 130 -3 19 -7 42 -8 50 -6 43
-50 54 -80 21z"/>
</g>
</svg>
